<?xml version="1.0" standalone="no"?>
<!DOCTYPE svg PUBLIC "-//W3C//DTD SVG 20010904//EN"
 "http://www.w3.org/TR/2001/REC-SVG-20010904/DTD/svg10.dtd">
<svg version="1.0" xmlns="http://www.w3.org/2000/svg"
 width="512.000000pt" height="512.000000pt" viewBox="0 0 512.000000 512.000000"
 preserveAspectRatio="xMidYMid meet">

<g transform="translate(0.000000,512.000000) scale(0.100000,-0.100000)"
fill="#fff" stroke="none">
<path d="M655 5114 c-11 -2 -45 -9 -75 -15 -217 -44 -429 -224 -522 -444 -56
-133 -53 -12 -53 -2095 0 -2083 -3 -1962 53 -2095 93 -219 290 -387 522 -446
82 -21 3878 -21 3960 0 274 70 491 287 561 561 21 82 21 3878 0 3960 -59 230
-227 429 -441 520 -140 59 19 54 -2070 56 -1053 1 -1924 0 -1935 -2z m3796
-304 c180 -34 325 -179 359 -359 14 -74 14 -3708 0 -3782 -34 -180 -179 -325
-359 -359 -74 -14 -3708 -14 -3782 0 -180 34 -325 179 -359 359 -14 74 -14
3708 0 3782 33 176 179 324 351 358 65 13 3723 13 3790 1z"/>
<path d="M910 2560 l0 -1050 478 0 c381 0 491 3 547 15 270 57 475 309 475
585 0 137 -61 296 -151 395 l-51 55 51 55 c90 99 151 258 151 395 0 276 -205
528 -475 585 -56 12 -166 15 -547 15 l-478 0 0 -1050z m1021 724 c60 -28 125
-93 152 -153 30 -64 30 -178 0 -242 -27 -60 -92 -125 -152 -153 -44 -20 -63
-21 -383 -24 l-338 -3 0 301 0 301 338 -3 c320 -3 339 -4 383 -24z m0 -900
c60 -28 125 -93 152 -153 30 -64 30 -178 0 -242 -27 -60 -92 -125 -152 -153
-44 -20 -63 -21 -383 -24 l-338 -3 0 301 0 301 338 -3 c320 -3 339 -4 383 -24z"/>
<path d="M2860 3460 l0 -150 600 0 600 0 0 150 0 150 -600 0 -600 0 0 -150z"/>
<path d="M3365 3004 c-11 -2 -45 -9 -75 -15 -217 -44 -429 -224 -522 -444 -41
-97 -53 -162 -53 -285 0 -123 12 -188 53 -285 93 -219 290 -387 522 -446 78
-20 269 -18 350 4 36 9 108 38 160 63 81 40 108 60 185 138 50 50 98 105 107
122 l17 31 -121 69 c-129 73 -148 81 -148 66 0 -6 -23 -35 -51 -66 -62 -67
-164 -122 -262 -139 -175 -30 -373 66 -455 221 -18 33 -32 63 -32 66 0 3 264
6 586 6 l587 0 -6 143 c-6 145 -16 200 -57 297 -89 209 -280 374 -505 437 -51
14 -243 26 -280 17z m187 -305 c121 -26 241 -114 296 -217 18 -33 32 -63 32
-66 0 -3 -189 -6 -420 -6 -231 0 -420 3 -420 6 0 25 73 133 114 170 114 103
256 143 398 113z"/>
</g>
</svg>
