<?xml version="1.0" standalone="no"?>
<!DOCTYPE svg PUBLIC "-//W3C//DTD SVG 20010904//EN"
 "http://www.w3.org/TR/2001/REC-SVG-20010904/DTD/svg10.dtd">
<svg version="1.0" xmlns="http://www.w3.org/2000/svg"
 width="64.000000pt" height="64.000000pt" viewBox="0 0 64.000000 64.000000"
 preserveAspectRatio="xMidYMid meet">

<g transform="translate(0.000000,64.000000) scale(0.100000,-0.100000)"
fill="#fff" stroke="none">
<path d="M30 631 c0 -12 217 -586 232 -615 5 -10 14 -14 18 -10 5 5 20 69 34
143 14 74 28 137 31 140 3 3 62 17 131 31 69 14 126 30 127 35 2 9 -502 264
-553 280 -11 4 -20 2 -20 -4z m515 -269 c-3 -3 -192 -42 -206 -42 -6 0 -229
247 -229 254 0 2 99 -43 220 -102 121 -58 218 -108 215 -110z m-337 60 l109
-123 -18 -92 c-10 -51 -21 -103 -25 -117 -4 -19 -24 23 -85 185 -44 116 -86
228 -95 250 -9 22 -11 36 -6 30 6 -5 60 -65 120 -133z"/>
</g>
</svg>
