<?xml version="1.0" standalone="no"?>
<!DOCTYPE svg PUBLIC "-//W3C//DTD SVG 20010904//EN"
 "http://www.w3.org/TR/2001/REC-SVG-20010904/DTD/svg10.dtd">
<svg version="1.0" xmlns="http://www.w3.org/2000/svg"
 width="64.000000pt" height="64.000000pt" viewBox="0 0 64.000000 64.000000"
 preserveAspectRatio="xMidYMid meet">

<g transform="translate(0.000000,64.000000) scale(0.100000,-0.100000)"
fill="#fff" stroke="none">
<path d="M25 615 l-25 -24 0 -271 0 -271 25 -24 24 -25 271 0 271 0 24 25 25
24 0 271 0 271 -25 24 -24 25 -271 0 -271 0 -24 -25z m560 -295 l0 -265 -82
-3 -83 -3 0 101 0 100 40 0 c22 0 40 4 40 9 0 5 3 23 6 40 l6 31 -46 0 c-45 0
-46 0 -46 33 0 42 15 57 57 57 32 0 33 1 33 40 0 38 -2 40 -30 40 -43 0 -96
-24 -113 -52 -9 -12 -19 -44 -22 -70 -7 -46 -8 -48 -41 -48 -33 0 -34 -1 -34
-40 0 -39 1 -40 34 -40 l35 0 3 -100 3 -101 -145 3 -145 3 -3 255 c-1 140 0
260 3 267 3 11 61 13 267 11 l263 -3 0 -265z"/>
</g>
</svg>
