<?xml version="1.0" standalone="no"?>
<!DOCTYPE svg PUBLIC "-//W3C//DTD SVG 20010904//EN"
 "http://www.w3.org/TR/2001/REC-SVG-20010904/DTD/svg10.dtd">
<svg version="1.0" xmlns="http://www.w3.org/2000/svg"
 width="64.000000pt" height="64.000000pt" viewBox="0 0 64.000000 64.000000"
 preserveAspectRatio="xMidYMid meet">

<g transform="translate(0.000000,64.000000) scale(0.100000,-0.100000)"
fill="#fff" stroke="none">
<path d="M42 501 c-8 -5 -12 -17 -10 -27 3 -18 17 -19 288 -19 l285 0 0 25 0
25 -275 2 c-151 2 -281 -1 -288 -6z"/>
<path d="M42 341 c-8 -5 -12 -17 -10 -27 3 -18 17 -19 288 -19 271 0 285 1
288 19 2 10 -2 22 -10 27 -17 11 -539 11 -556 0z"/>
<path d="M42 181 c-8 -5 -12 -17 -10 -27 3 -18 17 -19 288 -19 271 0 285 1
288 19 2 10 -2 22 -10 27 -17 11 -539 11 -556 0z"/>
</g>
</svg>
